<?xml version="1.0" encoding="UTF-8" standalone="no"?>
<svg
   xmlns:dc="http://purl.org/dc/elements/1.1/"
   xmlns:cc="http://creativecommons.org/ns#"
   xmlns:rdf="http://www.w3.org/1999/02/22-rdf-syntax-ns#"
   xmlns:svg="http://www.w3.org/2000/svg"
   xmlns="http://www.w3.org/2000/svg"
   xmlns:sodipodi="http://sodipodi.sourceforge.net/DTD/sodipodi-0.dtd"
   xmlns:inkscape="http://www.inkscape.org/namespaces/inkscape"
   style="enable-background:new 0 0 499.992 500.004;"
   version="1.1"
   viewBox="0 0 499.992 500.004"
   xml:space="preserve"
   id="svg3336"
   inkscape:version="0.91 r13725"
   sodipodi:docname="1463520990_calculator-pencil.svg"><metadata
     id="metadata3421"><rdf:RDF><cc:Work
         rdf:about=""><dc:format>image/svg+xml</dc:format><dc:type
           rdf:resource="http://purl.org/dc/dcmitype/StillImage" /></cc:Work></rdf:RDF></metadata><defs
     id="defs3419"><linearGradient
       y2="250.8922"
       y1="250.8922"
       x2="329.84769"
       x1="125.3194"
       id="SVGID_1_"
       gradientUnits="userSpaceOnUse"
       gradientTransform="translate(22.411003,-0.8900011)"><stop
         id="stop3345"
         style="stop-color:#586373"
         offset="0.5" /><stop
         id="stop3347"
         style="stop-color:#474F59"
         offset="0.5" /></linearGradient><linearGradient
       gradientUnits="userSpaceOnUse"
       id="SVGID_2_"
       x1="349.7323"
       x2="374.67661"
       y1="270.38791"
       y2="270.38791"><stop
         offset="0.5"
         style="stop-color:#FFFFFF"
         id="stop3410" /><stop
         offset="0.5"
         style="stop-color:#EBEBEB"
         id="stop3412" /></linearGradient></defs><sodipodi:namedview
     pagecolor="#ffffff"
     bordercolor="#666666"
     borderopacity="1"
     objecttolerance="10"
     gridtolerance="10"
     guidetolerance="10"
     inkscape:pageopacity="0"
     inkscape:pageshadow="2"
     inkscape:window-width="730"
     inkscape:window-height="945"
     id="namedview3417"
     showgrid="false"
     inkscape:zoom="0.26940553"
     inkscape:cx="-432.84928"
     inkscape:cy="1954.4672"
     inkscape:window-x="401"
     inkscape:window-y="0"
     inkscape:window-maximized="0"
     inkscape:current-layer="svg3336" /><circle
     cx="249.994"
     cy="250.002"
     r="250.002"
     style="fill:#a8b6c0"
     id="circle3341"
     inkscape:export-filename="C:\Users\rnossal\Downloads\base-calc\assets\app-icon\png\16.png"
     inkscape:export-xdpi="2.879977"
     inkscape:export-ydpi="2.879977" /><g
     id="g4515"
     transform="matrix(1.36297,0,0,1.36297,-90.740319,-90.743223)"
     inkscape:export-filename="C:\Users\rnossal\Downloads\base-calc\assets\app-icon\png\16.png"
     inkscape:export-xdpi="2.879977"
     inkscape:export-ydpi="2.879977"><path
       d="m 147.73,144.951 0,210.111 c 0.009,8.009 6.449,14.378 13.88,14.393 l 0,0 176.768,0 c 7.432,-0.015 13.863,-6.385 13.88,-14.393 l 0,0 0,-210.111 c -0.017,-8.019 -6.449,-14.387 -13.88,-14.402 l 0,0 -176.767,0 c -7.432,0.015 -13.872,6.383 -13.881,14.402 l 0,0 z"
       style="fill:url(#SVGID_1_)"
       id="path3349"
       inkscape:connector-curvature="0" /><path
       inkscape:connector-curvature="0"
       id="path3357"
       style="fill:#afe9d7"
       d="m 329.374,183.965 c 0,5.979 -4.893,10.876 -10.88,10.876 l -136.999,0 c -5.979,0 -10.872,-4.898 -10.872,-10.876 l 0,-22.472 c 0,-5.983 4.893,-10.872 10.872,-10.872 l 136.999,0 c 5.987,0 10.88,4.889 10.88,10.872 l 0,22.472 z" /><path
       inkscape:connector-curvature="0"
       id="path3363"
       style="fill:#5fd4af"
       d="m 255.726,226.954 c 0,-3.592 2.94,-6.523 6.526,-6.523 l 16.316,0 c 3.59,0 6.526,2.932 6.526,6.523 l 0,16.312 c 0,3.585 -2.936,6.521 -6.526,6.521 l -16.317,0 c -3.586,0 -6.526,-2.936 -6.526,-6.521 l 0,-16.312 z" /><path
       d="m 296.55,226.954 c 0,-3.592 2.94,-6.523 6.529,-6.523 l 16.316,0 c 3.59,0 6.521,2.932 6.521,6.523 l 0,16.312 c 0,3.585 -2.932,6.521 -6.521,6.521 l -16.316,0 c -3.59,0 -6.529,-2.936 -6.529,-6.521 l 0,-16.312 z"
       style="fill:#ff9554"
       id="path3369"
       inkscape:connector-curvature="0" /><path
       d="m 196.918,220.431 -16.316,0 c -3.59,0 -6.53,2.932 -6.53,6.523 l 0,16.312 c 0,3.585 2.94,6.521 6.53,6.521 l 16.316,0 c 3.59,0 6.521,-2.936 6.521,-6.521 l 0,-16.312 c 0,-3.592 -2.931,-6.523 -6.521,-6.523 z"
       style="fill:#ffffff"
       id="path3373"
       inkscape:connector-curvature="0" /><path
       d="m 237.743,220.431 -16.316,0 c -3.59,0 -6.522,2.932 -6.522,6.523 l 0,16.312 c 0,3.585 2.932,6.521 6.522,6.521 l 16.316,0 c 3.59,0 6.521,-2.936 6.521,-6.521 l 0,-16.312 c 0,-3.592 -2.932,-6.523 -6.521,-6.523 z"
       style="fill:#ffffff"
       id="path3375"
       inkscape:connector-curvature="0" /><path
       d="m 196.918,254.986 -16.316,0 c -3.59,0 -6.53,2.934 -6.53,6.517 l 0,16.316 c 0,3.583 2.94,6.523 6.53,6.523 l 16.316,0 c 3.59,0 6.521,-2.94 6.521,-6.523 l 0,-16.316 c 0,-3.583 -2.931,-6.517 -6.521,-6.517 z"
       style="fill:#ffffff"
       id="path3377"
       inkscape:connector-curvature="0" /><path
       d="m 237.743,254.986 -16.316,0 c -3.59,0 -6.522,2.934 -6.522,6.517 l 0,16.316 c 0,3.583 2.932,6.523 6.522,6.523 l 16.316,0 c 3.59,0 6.521,-2.94 6.521,-6.523 l 0,-16.316 c 0,-3.583 -2.932,-6.517 -6.521,-6.517 z"
       style="fill:#ffffff"
       id="path3379"
       inkscape:connector-curvature="0" /><path
       d="m 278.567,254.986 -16.316,0 c -3.586,0 -6.526,2.934 -6.526,6.517 l 0,16.316 c 0,3.583 2.94,6.523 6.526,6.523 l 16.316,0 c 3.59,0 6.526,-2.94 6.526,-6.523 l 0,-16.316 c 0,-3.583 -2.936,-6.517 -6.526,-6.517 z"
       style="fill:#ffffff"
       id="path3381"
       inkscape:connector-curvature="0" /><path
       d="m 319.396,254.986 -16.316,0 c -3.59,0 -6.529,2.934 -6.529,6.517 l 0,16.316 c 0,3.583 2.94,6.523 6.529,6.523 l 16.316,0 c 3.59,0 6.521,-2.94 6.521,-6.523 l 0,-16.316 c 0,-3.583 -2.931,-6.517 -6.521,-6.517 z"
       style="fill:#ffffff"
       id="path3383"
       inkscape:connector-curvature="0" /><path
       d="m 196.918,289.535 -16.316,0 c -3.59,0 -6.53,2.934 -6.53,6.522 l 0,16.314 c 0,3.585 2.94,6.521 6.53,6.521 l 16.316,0 c 3.59,0 6.521,-2.936 6.521,-6.521 l 0,-16.314 c 0,-3.588 -2.931,-6.522 -6.521,-6.522 z"
       style="fill:#ffffff"
       id="path3385"
       inkscape:connector-curvature="0" /><path
       d="m 237.743,289.535 -16.316,0 c -3.59,0 -6.522,2.934 -6.522,6.522 l 0,16.314 c 0,3.585 2.932,6.521 6.522,6.521 l 16.316,0 c 3.59,0 6.521,-2.936 6.521,-6.521 l 0,-16.314 c 0,-3.588 -2.932,-6.522 -6.521,-6.522 z"
       style="fill:#ffffff"
       id="path3387"
       inkscape:connector-curvature="0" /><path
       d="m 278.567,289.535 -16.316,0 c -3.586,0 -6.526,2.934 -6.526,6.522 l 0,16.314 c 0,3.585 2.94,6.521 6.526,6.521 l 16.316,0 c 3.59,0 6.526,-2.936 6.526,-6.521 l 0,-16.314 c 0,-3.588 -2.936,-6.522 -6.526,-6.522 z"
       style="fill:#ffffff"
       id="path3389"
       inkscape:connector-curvature="0" /><path
       d="m 319.396,289.535 -16.316,0 c -3.59,0 -6.529,2.934 -6.529,6.522 l 0,16.314 c 0,3.585 2.94,6.521 6.529,6.521 l 16.316,0 c 3.59,0 6.521,-2.936 6.521,-6.521 l 0,-16.314 c 0,-3.588 -2.931,-6.522 -6.521,-6.522 z"
       style="fill:#ffffff"
       id="path3391"
       inkscape:connector-curvature="0" /><path
       d="m 196.918,324.086 -16.316,0 c -3.59,0 -6.53,2.934 -6.53,6.526 l 0,16.312 c 0,3.587 2.94,6.521 6.53,6.521 l 16.316,0 c 3.59,0 6.521,-2.934 6.521,-6.521 l 0,-16.312 c 0,-3.593 -2.931,-6.526 -6.521,-6.526 z"
       style="fill:#ffffff"
       id="path3393"
       inkscape:connector-curvature="0" /><path
       d="m 237.743,324.086 -16.316,0 c -3.59,0 -6.522,2.934 -6.522,6.526 l 0,16.312 c 0,3.587 2.932,6.521 6.522,6.521 l 16.316,0 c 3.59,0 6.521,-2.934 6.521,-6.521 l 0,-16.312 c 0,-3.593 -2.932,-6.526 -6.521,-6.526 z"
       style="fill:#ffffff"
       id="path3395"
       inkscape:connector-curvature="0" /><path
       d="m 278.567,324.086 -16.316,0 c -3.586,0 -6.526,2.934 -6.526,6.526 l 0,16.312 c 0,3.587 2.94,6.521 6.526,6.521 l 16.316,0 c 3.59,0 6.526,-2.934 6.526,-6.521 l 0,-16.312 c 0,-3.593 -2.936,-6.526 -6.526,-6.526 z"
       style="fill:#ffffff"
       id="path3397"
       inkscape:connector-curvature="0" /><path
       d="m 319.396,324.086 -16.316,0 c -3.59,0 -6.529,2.934 -6.529,6.526 l 0,16.312 c 0,3.587 2.94,6.521 6.529,6.521 l 16.316,0 c 3.59,0 6.521,-2.934 6.521,-6.521 l 0,-16.312 c 0,-3.593 -2.931,-6.526 -6.521,-6.526 z"
       style="fill:#ffffff"
       id="path3399"
       inkscape:connector-curvature="0" /><path
       d="m 313.669,165.214 4.261,0 0,12.784 -4.261,0 0,4.261 -12.782,0 0,-4.261 -4.265,0 0,-12.784 4.265,0 0,-4.263 12.782,0 0,4.263 z m 0,0.066 -12.782,0 0,12.613 12.782,0 0,-12.613 z"
       style="fill:#59616a"
       id="path3403"
       inkscape:connector-curvature="0" /><path
       inkscape:connector-curvature="0"
       id="path3637"
       style="fill:#59616a"
       d="m 313.669,165.214 4.261,0 0,12.784 -4.261,0 0,4.261 -12.782,0 0,-4.261 -4.265,0 0,-12.784 4.265,0 0,-4.263 12.782,0 0,4.263 z m 0,0.066 -12.782,0 0,12.613 12.782,0 0,-12.613 z" /></g></svg>